<svg xmlns="http://www.w3.org/2000/svg" viewBox="0 0 786.74 468.54"><defs><style>.cls-1{fill:#fff;}.cls-2{fill:none;stroke:#131313;stroke-miterlimit:10;stroke-width:9.66px;}.cls-3{fill:#131313;}</style></defs><title>BDG</title><g id="Layer_2" data-name="Layer 2"><g id="Layer_1-2" data-name="Layer 1"><path class="cls-1" d="M100.42,4.83l550.22.68A6.46,6.46,0,0,1,657.1,12L657,130.7l118,.15a6.46,6.46,0,0,1,6.45,6.48L781.92,251c0,3.57-3.52,12.47-7.09,12.46l-131.53-.16a6.47,6.47,0,0,0-6.47,6.47V393.27c0,3.58-3.06,7.17-6.63,7.17l-509.32-.62a6.47,6.47,0,0,1-6.46-6.49l.16-131a6.48,6.48,0,0,1,6.47-6.48l62.28.08a6.46,6.46,0,0,0,6.47-6.47l.12-97.82a6.47,6.47,0,0,0-6.46-6.48L85.82,145a6.45,6.45,0,0,1-6.46-6.53c.25-21.77,1.06-88.71,1.38-117.61.08-7,12.73-16.06,19.68-16"/><path class="cls-2" d="M100.42,4.83l550.22.68A6.46,6.46,0,0,1,657.1,12L657,130.7l118,.15a6.46,6.46,0,0,1,6.45,6.48l.06,12.44.13,29.19.16,33.81.12,26.28c0,3.83-.81,19.36-6.68,19.35L643.3,263.25a6.47,6.47,0,0,0-6.47,6.47l.11,119.74c0,3.58-6.73,8.25-10.31,8.24l-505.75,2.12a6.47,6.47,0,0,1-6.46-6.49l1-131.59c0-3.58,2.07-5.91,5.64-5.91l62.28.08a6.46,6.46,0,0,0,6.47-6.47l.12-97.82a6.47,6.47,0,0,0-6.46-6.48L85.82,145a6.45,6.45,0,0,1-6.46-6.53c.25-21.77,1.06-88.71,1.38-117.61C80.82,13.91,93.47,4.82,100.42,4.83Z"/><path class="cls-1" d="M24.88,68.12l538.69.66a18.88,18.88,0,0,1,18.84,19l-.11,93.8A12.44,12.44,0,0,0,594.72,194l93.16.11a18.93,18.93,0,0,1,18.88,19l-.12,94.7a18.9,18.9,0,0,1-18.92,18.91l-106.66-.13a18.92,18.92,0,0,0-18.92,18.92L562,444.79a18.9,18.9,0,0,1-18.92,18.91l-484.45-.59a18.92,18.92,0,0,1-18.88-18.95L39.89,338a18.93,18.93,0,0,1,18.93-18.91l37.4.05a18.92,18.92,0,0,0,18.93-18.91l.08-72.9a18.91,18.91,0,0,0-18.88-19l-72.64-.09A18.92,18.92,0,0,1,4.83,189.18C5.14,162.27,5.7,113.52,6,86.82a18.86,18.86,0,0,1,18.88-18.7"/><path class="cls-2" d="M24.88,68.12l538.69.66a18.88,18.88,0,0,1,18.84,19l-.11,93.8A12.44,12.44,0,0,0,594.72,194l93.16.11a18.93,18.93,0,0,1,18.88,19l-.12,94.69a18.9,18.9,0,0,1-18.92,18.91l-106.66-.13a18.92,18.92,0,0,0-18.92,18.92L562,444.79a18.9,18.9,0,0,1-18.92,18.91l-484.45-.59a18.92,18.92,0,0,1-18.88-18.95L39.89,338a18.93,18.93,0,0,1,18.93-18.91l37.4.05a18.92,18.92,0,0,0,18.93-18.91l.08-72.9a18.91,18.91,0,0,0-18.88-19l-72.64-.09A18.92,18.92,0,0,1,4.83,189.18C5.14,162.27,5.7,113.52,6,86.82A18.86,18.86,0,0,1,24.88,68.12Z"/><path class="cls-3" d="M782.41,131.36l-125.2-2.25L657.09,7.37,129.16,4.44c-1.37,0-44.57-.61-43,1.26L9.59,69.32c-6.66,2.43,7.23-2.5,12.52-2.48l553.86,2,.23-.17,3.12,3.72,3,121.65,122.28,1.44-2,130.51,77.49-64.22c2.63-2.24-.58-14.87-.61-18.34Z"/><path class="cls-3" d="M637.62,336.65l-.06,46.11c0,2.41-.13,14.68-2,16.17l-78,64.92c-5.24,4.13.86-9.05,1.08-15.73l3.61-112.19a7.84,7.84,0,0,1,7.9-7.6l59.7.47a7.86,7.86,0,0,1,7.78,7.85"/><path class="cls-3" d="M100.31,124.09c0,5.77-2.77,11.33-9.71,14.43,8.75,2.68,12,12,12,16.69,0,16.68-12.49,22-28,22H39.14V102.38H74.58c14.74,0,25.73,6.63,25.73,21.71M53,132.43H74.58c8.86,0,11.75-3.75,11.75-8,0-3.42-2.78-9.2-11.75-9.2H53Zm0,31.65H74.58c5.77,0,14-1.92,14-9,0-6.74-8.22-10.26-14-10.26H53Z"/><path class="cls-3" d="M195.12,102.49v42.88c0,22.13-13.55,33.47-32.34,33.47-17.93,0-33.2-10.91-33.2-33.47V102.49h14v42.88c0,13.47,7.68,20.63,19.32,20.63s18.26-7.8,18.26-20.63V102.49Z"/><path class="cls-3" d="M272.12,120.45c-2.57-4.28-9.61-8.34-17.72-8.34-10.47,0-15.48,4.39-15.48,10,0,6.52,7.68,8.33,16.65,9.41,15.58,1.92,30.1,6,30.1,23.84,0,16.68-14.73,23.85-31.38,23.85-15.27,0-27-4.71-32.56-18.39l11.74-6.09c3.3,8.23,12,11.86,21,11.86,8.86,0,17.19-3.1,17.19-11.23,0-7.05-7.37-9.94-17.29-11-15.28-1.81-29.37-5.87-29.37-22.66,0-15.4,15.17-21.71,28.93-21.82,11.65,0,23.71,3.32,29.37,14.87Z"/><polygon class="cls-3" points="332.98 115.21 309.28 115.21 309.28 102.38 370.77 102.38 370.77 115.21 347.07 115.21 347.07 177.24 332.98 177.24 332.98 115.21"/><polygon class="cls-3" points="410.5 102.38 410.5 164.19 448.94 164.19 448.94 177.24 396.4 177.24 396.4 102.38 410.5 102.38"/><polygon class="cls-3" points="531.68 177.24 475.74 177.24 475.74 102.38 531.68 102.38 531.68 116.07 489.73 116.07 489.73 133.28 530.19 133.28 530.19 146.44 489.73 146.44 489.73 163.33 531.68 163.33 531.68 177.24"/><path class="cls-3" d="M215.63,263c.33,18.92-11.21,38.07-37.36,38.07H148.91V226.23h29.36c25.62,0,37,18.29,37.36,36.79M162.9,287.5h15.37c17,0,23.7-12.4,23.38-24.59-.32-11.66-7.15-23.32-23.38-23.32H162.9Z"/><rect class="cls-3" x="243.3" y="226.23" width="13.99" height="74.86"/><path class="cls-3" d="M343.12,244.52a28.58,28.58,0,0,0-19-7.49c-16,0-25.73,12.19-25.73,27.59,0,12.3,7.15,25,25.73,25a24.76,24.76,0,0,0,16.86-6V270.4h-19.1V257.77h32v31.55c-7.37,8.45-16.65,13.48-29.78,13.48-28.08,0-39.5-18.5-39.5-38.18,0-21.07,13.13-40.53,39.5-40.53a39.39,39.39,0,0,1,27.75,11.45Z"/><rect class="cls-3" x="382.64" y="226.23" width="13.98" height="74.86"/><polygon class="cls-3" points="449.69 239.06 425.99 239.06 425.99 226.23 487.48 226.23 487.48 239.06 463.78 239.06 463.78 301.09 449.69 301.09 449.69 239.06"/><path class="cls-3" d="M564,287H525l-6.41,14.12H503.29l33.53-74.86h15.37l33.52,74.86H570.33ZM544.5,242l-13.88,31.87h27.76Z"/><polygon class="cls-3" points="624.37 226.23 624.37 288.04 662.81 288.04 662.81 301.09 610.28 301.09 610.28 226.23 624.37 226.23"/><path class="cls-3" d="M131.25,371.42a28.66,28.66,0,0,0-19-7.48c-16,0-25.74,12.2-25.74,27.59,0,12.3,7.16,25,25.74,25a24.79,24.79,0,0,0,16.86-6V397.3H110V384.69h32v31.54c-7.36,8.45-16.65,13.48-29.77,13.48-28.09,0-39.5-18.5-39.5-38.18,0-21.06,13.12-40.53,39.5-40.53A39.41,39.41,0,0,1,140,362.45Z"/><path class="cls-3" d="M235.88,428H219.12l-21.78-25H183.79v25h-14.1V353c11.85,0,23.7.11,35.56.11,17.6.11,26.89,11.87,26.89,24.81,0,10.26-4.69,20.64-18.89,23.52L235.88,427Zm-52.09-61.7v24h21.46c9,0,12.8-6,12.8-12s-3.94-12-12.8-12Z"/><path class="cls-3" d="M332.19,391c-.21,19.35-12.07,38.71-38.32,38.71s-38.44-18.93-38.44-38.61,12.6-39.45,38.44-39.45S332.4,371.42,332.19,391m-62.88.32c.32,12.29,6.94,25.45,24.56,25.45s24.23-13.26,24.44-25.56c.22-12.62-6.83-26.73-24.44-26.73S269,378.7,269.31,391.32"/><path class="cls-3" d="M425.19,353.25v42.88c0,22.13-13.56,33.47-32.35,33.47-17.93,0-33.2-10.91-33.2-33.47V353.25h14v42.88c0,13.47,7.69,20.64,19.32,20.64s18.26-7.81,18.26-20.64V353.25Z"/><path class="cls-3" d="M491.29,406H470.15v22H456.06V353.14c11.74,0,23.48-.11,35.23-.11,36.51,0,36.61,52.94,0,52.94M470.15,393h21.14c18,0,17.93-26.52,0-26.52H470.15Z"/><path class="cls-3" d="M42.49,320.33,115.79,258l-1.94,52.06a7.89,7.89,0,0,1-7.55,7.62Z"/></g></g></svg>