<svg width="539pt" height="298pt" viewBox="0.00 0.00 538.67 297.83" xmlns="http://www.w3.org/2000/svg" xmlns:xlink="http://www.w3.org/1999/xlink" style="max-width: 100%; height: auto;">
<g id="graph0" class="graph" transform="scale(1 1) rotate(0) translate(4 293.8313)">
<title>G</title>
<polygon fill="#ffffff" stroke="transparent" points="-4,4 -4,-293.8313 534.6735,-293.8313 534.6735,4 -4,4"></polygon>
<!-- Site -->
<g id="node1" class="node">
<title>Site</title>
<ellipse fill="none" stroke="#000000" cx="50.9117" cy="-144.4156" rx="50.8235" ry="29.3315"></ellipse>
<text text-anchor="middle" x="50.9117" y="-148.6156" font-family="Times,serif" font-size="14.00" fill="#000000">Site</text>
<text text-anchor="middle" x="50.9117" y="-131.8156" font-family="Times,serif" font-size="14.00" fill="#000000">#1000001</text>
</g>
<!-- Post -->
<g id="node2" class="node">
<title>Post</title>
<ellipse fill="none" stroke="#000000" cx="256.3971" cy="-144.4156" rx="50.8235" ry="29.3315"></ellipse>
<text text-anchor="middle" x="256.3971" y="-148.6156" font-family="Times,serif" font-size="14.00" fill="#000000">Post</text>
<text text-anchor="middle" x="256.3971" y="-131.8156" font-family="Times,serif" font-size="14.00" fill="#000000">#8031264</text>
</g>
<!-- Site&#45;&gt;Post -->
<g id="edge1" class="edge">
<title>Site-&gt;Post</title>
<path fill="none" stroke="#000000" d="M101.9698,-144.4156C130.1461,-144.4156 165.3346,-144.4156 195.0024,-144.4156"></path>
<polygon fill="#000000" stroke="#000000" points="195.2455,-147.9157 205.2455,-144.4156 195.2454,-140.9157 195.2455,-147.9157"></polygon>
<text text-anchor="middle" x="153.6544" y="-148.6156" font-family="Times,serif" font-size="14.00" fill="#000000">SiteHasPost</text>
</g>
<!-- User -->
<g id="node3" class="node">
<title>User</title>
<ellipse fill="none" stroke="#000000" cx="479.7618" cy="-260.4156" rx="50.8235" ry="29.3315"></ellipse>
<text text-anchor="middle" x="479.7618" y="-264.6156" font-family="Times,serif" font-size="14.00" fill="#000000">User</text>
<text text-anchor="middle" x="479.7618" y="-247.8156" font-family="Times,serif" font-size="14.00" fill="#000000">#1910027</text>
</g>
<!-- Post&#45;&gt;User -->
<g id="edge2" class="edge">
<title>Post-&gt;User</title>
<path fill="none" stroke="#000000" d="M287.8936,-167.6371C299.3847,-175.638 312.6655,-184.3543 325.3088,-191.4156 358.3945,-209.8943 397.3672,-227.2749 427.8866,-239.9698"></path>
<polygon fill="#000000" stroke="#000000" points="426.901,-243.3491 437.4803,-243.9224 429.5676,-236.8769 426.901,-243.3491"></polygon>
<text text-anchor="middle" x="368.0795" y="-235.6156" font-family="Times,serif" font-size="14.00" fill="#000000">PostHasAuthor</text>
</g>
<!-- Tag
#1706155 -->
<g id="node4" class="node">
<title>Tag
#1706155</title>
<ellipse fill="none" stroke="#000000" cx="479.7618" cy="-183.4156" rx="50.8235" ry="29.3315"></ellipse>
<text text-anchor="middle" x="479.7618" y="-187.6156" font-family="Times,serif" font-size="14.00" fill="#000000">Tag</text>
<text text-anchor="middle" x="479.7618" y="-170.8156" font-family="Times,serif" font-size="14.00" fill="#000000">#1706155</text>
</g>
<!-- Post&#45;&gt;Tag
#1706155 -->
<g id="edge3" class="edge">
<title>Post-&gt;Tag
#1706155</title>
<path fill="none" stroke="#000000" d="M305.1394,-152.9262C339.1661,-158.8673 384.7661,-166.8292 420.8351,-173.1269"></path>
<polygon fill="#000000" stroke="#000000" points="420.2851,-176.5837 430.7381,-174.856 421.4892,-169.6881 420.2851,-176.5837"></polygon>
<text text-anchor="middle" x="368.0795" y="-174.6156" font-family="Times,serif" font-size="14.00" fill="#000000">PostHasTags</text>
</g>
<!-- Tag
#1706162 -->
<g id="node5" class="node">
<title>Tag
#1706162</title>
<ellipse fill="none" stroke="#000000" cx="479.7618" cy="-106.4156" rx="50.8235" ry="29.3315"></ellipse>
<text text-anchor="middle" x="479.7618" y="-110.6156" font-family="Times,serif" font-size="14.00" fill="#000000">Tag</text>
<text text-anchor="middle" x="479.7618" y="-93.8156" font-family="Times,serif" font-size="14.00" fill="#000000">#1706162</text>
</g>
<!-- Post&#45;&gt;Tag
#1706162 -->
<g id="edge4" class="edge">
<title>Post-&gt;Tag
#1706162</title>
<path fill="none" stroke="#000000" d="M305.4154,-136.0764C339.4568,-130.2851 384.9823,-122.54 420.976,-116.4166"></path>
<polygon fill="#000000" stroke="#000000" points="421.5865,-119.8631 430.8578,-114.7354 420.4125,-112.9623 421.5865,-119.8631"></polygon>
<text text-anchor="middle" x="368.0795" y="-135.6156" font-family="Times,serif" font-size="14.00" fill="#000000">PostHasTags</text>
</g>
<!-- Tag
#2214803 -->
<g id="node6" class="node">
<title>Tag
#2214803</title>
<ellipse fill="none" stroke="#000000" cx="479.7618" cy="-29.4156" rx="50.8235" ry="29.3315"></ellipse>
<text text-anchor="middle" x="479.7618" y="-33.6156" font-family="Times,serif" font-size="14.00" fill="#000000">Tag</text>
<text text-anchor="middle" x="479.7618" y="-16.8156" font-family="Times,serif" font-size="14.00" fill="#000000">#2214803</text>
</g>
<!-- Post&#45;&gt;Tag
#2214803 -->
<g id="edge5" class="edge">
<title>Post-&gt;Tag
#2214803</title>
<path fill="none" stroke="#000000" d="M287.8879,-121.2714C299.3785,-113.3026 312.6604,-104.6276 325.3088,-97.6156 358.2733,-79.3409 397.0893,-62.2183 427.5621,-49.701"></path>
<polygon fill="#000000" stroke="#000000" points="429.2005,-52.8131 437.1447,-45.8031 426.563,-46.329 429.2005,-52.8131"></polygon>
<text text-anchor="middle" x="368.0795" y="-101.6156" font-family="Times,serif" font-size="14.00" fill="#000000">PostHasTags</text>
</g>
</g>
</svg>
