<svg width="500pt" height="298pt" viewBox="0.00 0.00 499.78 297.83" xmlns="http://www.w3.org/2000/svg" xmlns:xlink="http://www.w3.org/1999/xlink" style="max-width: 100%; height: auto;">
<g id="graph0" class="graph" transform="scale(1 1) rotate(0) translate(4 293.8313)">
<title>G</title>
<polygon fill="#ffffff" stroke="transparent" points="-4,4 -4,-293.8313 495.7787,-293.8313 495.7787,4 -4,4"></polygon>
<!-- Site -->
<g id="node1" class="node">
<title>Site</title>
<ellipse fill="none" stroke="#000000" cx="50.9117" cy="-144.4156" rx="50.8235" ry="29.3315"></ellipse>
<text text-anchor="middle" x="50.9117" y="-148.6156" font-family="Times,serif" font-size="14.00" fill="#000000">Site</text>
<text text-anchor="middle" x="50.9117" y="-131.8156" font-family="Times,serif" font-size="14.00" fill="#000000">#1000001</text>
</g>
<!-- Post -->
<g id="node2" class="node">
<title>Post</title>
<ellipse fill="none" stroke="#000000" cx="212.0703" cy="-144.4156" rx="50.8235" ry="29.3315"></ellipse>
<text text-anchor="middle" x="212.0703" y="-148.6156" font-family="Times,serif" font-size="14.00" fill="#000000">Post</text>
<text text-anchor="middle" x="212.0703" y="-131.8156" font-family="Times,serif" font-size="14.00" fill="#000000">#8031264</text>
</g>
<!-- Site&#45;&gt;Post -->
<g id="edge1" class="edge">
<title>Site-&gt;Post</title>
<path fill="none" stroke="#000000" d="M101.9033,-144.4156C117.4106,-144.4156 134.6158,-144.4156 150.7305,-144.4156"></path>
<polygon fill="#000000" stroke="#000000" points="151.134,-147.9157 161.134,-144.4156 151.134,-140.9157 151.134,-147.9157"></polygon>
<text text-anchor="middle" x="131.491" y="-148.6156" font-family="Times,serif" font-size="14.00" fill="#000000">post</text>
</g>
<!-- User -->
<g id="node3" class="node">
<title>User</title>
<ellipse fill="none" stroke="#000000" cx="440.867" cy="-260.4156" rx="50.8235" ry="29.3315"></ellipse>
<text text-anchor="middle" x="440.867" y="-264.6156" font-family="Times,serif" font-size="14.00" fill="#000000">User</text>
<text text-anchor="middle" x="440.867" y="-247.8156" font-family="Times,serif" font-size="14.00" fill="#000000">#1910027</text>
</g>
<!-- Post&#45;&gt;User -->
<g id="edge2" class="edge">
<title>Post-&gt;User</title>
<path fill="none" stroke="#000000" d="M243.5171,-167.7269C255.0035,-175.7362 268.294,-184.4349 280.982,-191.4156 315.5488,-210.434 356.4215,-227.9929 388.1886,-240.6383"></path>
<polygon fill="#000000" stroke="#000000" points="387.151,-243.9913 397.7379,-244.4011 389.7173,-237.4787 387.151,-243.9913"></polygon>
<text text-anchor="middle" x="326.4687" y="-237.6156" font-family="Times,serif" font-size="14.00" fill="#000000">author</text>
</g>
<!-- Tag
#1706155 -->
<g id="node4" class="node">
<title>Tag
#1706155</title>
<ellipse fill="none" stroke="#000000" cx="440.867" cy="-183.4156" rx="50.8235" ry="29.3315"></ellipse>
<text text-anchor="middle" x="440.867" y="-187.6156" font-family="Times,serif" font-size="14.00" fill="#000000">Tag</text>
<text text-anchor="middle" x="440.867" y="-170.8156" font-family="Times,serif" font-size="14.00" fill="#000000">#1706155</text>
</g>
<!-- Post&#45;&gt;Tag
#1706155 -->
<g id="edge3" class="edge">
<title>Post-&gt;Tag
#1706155</title>
<path fill="none" stroke="#000000" d="M261.1529,-152.7821C296.439,-158.7969 344.1933,-166.9369 381.6063,-173.3142"></path>
<polygon fill="#000000" stroke="#000000" points="381.4196,-176.8328 391.8656,-175.063 382.5959,-169.9324 381.4196,-176.8328"></polygon>
<text text-anchor="middle" x="326.4687" y="-174.6156" font-family="Times,serif" font-size="14.00" fill="#000000">tagConnection[]</text>
</g>
<!-- Tag
#1706162 -->
<g id="node5" class="node">
<title>Tag
#1706162</title>
<ellipse fill="none" stroke="#000000" cx="440.867" cy="-106.4156" rx="50.8235" ry="29.3315"></ellipse>
<text text-anchor="middle" x="440.867" y="-110.6156" font-family="Times,serif" font-size="14.00" fill="#000000">Tag</text>
<text text-anchor="middle" x="440.867" y="-93.8156" font-family="Times,serif" font-size="14.00" fill="#000000">#1706162</text>
</g>
<!-- Post&#45;&gt;Tag
#1706162 -->
<g id="edge4" class="edge">
<title>Post-&gt;Tag
#1706162</title>
<path fill="none" stroke="#000000" d="M261.1529,-136.2637C296.439,-130.4032 344.1933,-122.4718 381.6063,-116.258"></path>
<polygon fill="#000000" stroke="#000000" points="382.5742,-119.6453 391.8656,-114.5541 381.4272,-112.7399 382.5742,-119.6453"></polygon>
<text text-anchor="middle" x="326.4687" y="-135.6156" font-family="Times,serif" font-size="14.00" fill="#000000">tagConnection[]</text>
</g>
<!-- Tag
#2214803 -->
<g id="node6" class="node">
<title>Tag
#2214803</title>
<ellipse fill="none" stroke="#000000" cx="440.867" cy="-29.4156" rx="50.8235" ry="29.3315"></ellipse>
<text text-anchor="middle" x="440.867" y="-33.6156" font-family="Times,serif" font-size="14.00" fill="#000000">Tag</text>
<text text-anchor="middle" x="440.867" y="-16.8156" font-family="Times,serif" font-size="14.00" fill="#000000">#2214803</text>
</g>
<!-- Post&#45;&gt;Tag
#2214803 -->
<g id="edge5" class="edge">
<title>Post-&gt;Tag
#2214803</title>
<path fill="none" stroke="#000000" d="M243.5121,-121.1823C254.998,-113.2051 268.2896,-104.5476 280.982,-97.6156 315.5449,-78.739 356.4178,-61.3851 388.1858,-48.9069"></path>
<polygon fill="#000000" stroke="#000000" points="389.6831,-52.08 397.7355,-45.1945 387.1468,-45.5557 389.6831,-52.08"></polygon>
<text text-anchor="middle" x="326.4687" y="-101.6156" font-family="Times,serif" font-size="14.00" fill="#000000">tagConnection[]</text>
</g>
</g>
</svg>
